<svg width="985" height="692" viewBox="0 0 985 692" fill="none" xmlns="http://www.w3.org/2000/svg">
<rect width="985" height="692" fill="white"/>
<path d="M718.5 426.5C718.5 542.312 617.49 636.5 492.5 636.5C367.51 636.5 266.5 542.312 266.5 426.5C266.5 310.688 367.51 216.5 492.5 216.5C617.49 216.5 718.5 310.688 718.5 426.5Z" stroke="#EFDD3A" stroke-width="5"/>
<line x1="491" y1="214.012" x2="490" y2="54.0125" stroke="#282827" stroke-width="4"/>
<line x1="596.479" y1="241.412" x2="700.338" y2="119.702" stroke="#0E0E0C" stroke-width="4"/>
<line y1="-2" x2="160" y2="-2" transform="matrix(0.649119 0.760687 0.760687 -0.649119 275 121)" stroke="#121212" stroke-width="4"/>
<line y1="-2" x2="160" y2="-2" transform="matrix(0.861452 0.507839 0.507839 -0.861452 155 243)" stroke="#10100F" stroke-width="4"/>
<line x1="691.984" y1="322.531" x2="829.817" y2="241.277" stroke="#161615" stroke-width="4"/>
<line y1="-2" x2="160" y2="-2" transform="matrix(-1 0 0 1 264 418)" stroke="#161615" stroke-width="4"/>
<line y1="-2" x2="160" y2="-2" transform="matrix(-1 0 0 1 881 418)" stroke="#242424" stroke-width="4"/>
<line x1="373" y1="605" x2="104" y2="605" stroke="#858585" stroke-width="4"/>
<path d="M104 603C108.333 579.406 126.6 537.324 165 557.746C175.667 519.841 205.6 466.775 240 557.746C244.667 529.124 260.8 480.467 288 514.813" stroke="#858585" stroke-width="4"/>
<path d="M881 603C876.667 579.406 858.4 537.324 820 557.746C809.333 519.841 779.4 466.775 745 557.746C740.333 529.124 724.2 480.467 697 514.813" stroke="#858585" stroke-width="4"/>
<line x1="881" y1="605" x2="612" y2="605" stroke="#858585" stroke-width="4"/>
</svg>
